<?xml version="1.0" standalone="no"?>
<svg xmlns="http://www.w3.org/2000/svg" xmlns:xlink="http://www.w3.org/1999/xlink" width="1026pt" height="404pt" viewBox="0.00 0.00 1025.96 404.00">
<g id="graph0" class="graph" transform="translate(4,400) scale(1)" data-name="G">

<polygon fill="white" stroke="none" points="-4,4 -4,-400 1021.96,-400 1021.96,4 -4,4" style=""/>
<!-- TokenVesting -->
<g id="node1" class="node" pointer-events="visible" data-name="TokenVesting">

<ellipse fill="none" stroke="black" cx="106.93" cy="-378" rx="66" ry="18" style=""/>
<text text-anchor="middle" x="106.93" y="-373.8" font-family="Times,serif" font-size="14.00" style="">TokenVesting</text>
</g>
<!-- Owned -->
<g id="node2" class="node" pointer-events="visible" data-name="Owned">

<ellipse fill="none" stroke="black" cx="38.93" cy="-306" rx="38.86" ry="18" style=""/>
<text text-anchor="middle" x="38.93" y="-301.8" font-family="Times,serif" font-size="14.00" style="">Owned</text>
</g>
<!-- TokenVesting&#45;&gt;Owned -->
<g id="edge1" class="edge" data-name="TokenVesting-&gt;Owned">

<path fill="none" stroke="black" d="M90.81,-360.41C82.31,-351.66 71.71,-340.75 62.32,-331.08" style=""/>
<polygon fill="black" stroke="black" points="64.99,-328.81 55.51,-324.07 59.97,-333.69 64.99,-328.81" style=""/>
</g>
<!-- ReentrancyGuard -->
<g id="node3" class="node" pointer-events="visible" data-name="ReentrancyGuard">

<ellipse fill="none" stroke="black" cx="174.93" cy="-306" rx="79.28" ry="18" style=""/>
<text text-anchor="middle" x="174.93" y="-301.8" font-family="Times,serif" font-size="14.00" style="">ReentrancyGuard</text>
</g>
<!-- TokenVesting&#45;&gt;ReentrancyGuard -->
<g id="edge2" class="edge" data-name="TokenVesting-&gt;ReentrancyGuard">

<path fill="none" stroke="black" d="M123.04,-360.41C131.22,-351.99 141.33,-341.58 150.45,-332.2" style=""/>
<polygon fill="black" stroke="black" points="152.94,-334.65 157.4,-325.04 147.92,-329.78 152.94,-334.65" style=""/>
</g>
<!-- ERC20 -->
<g id="node4" class="node" pointer-events="visible" data-name="ERC20">

<ellipse fill="none" stroke="black" cx="368.93" cy="-162" rx="39.45" ry="18" style=""/>
<text text-anchor="middle" x="368.93" y="-157.8" font-family="Times,serif" font-size="14.00" style="">ERC20</text>
</g>
<!-- Context -->
<g id="node5" class="node" pointer-events="visible" data-name="Context">

<ellipse fill="none" stroke="black" cx="486.93" cy="-90" rx="41.73" ry="18" style=""/>
<text text-anchor="middle" x="486.93" y="-85.8" font-family="Times,serif" font-size="14.00" style="">Context</text>
</g>
<!-- ERC20&#45;&gt;Context -->
<g id="edge3" class="edge" data-name="ERC20-&gt;Context">

<path fill="none" stroke="black" d="M392.24,-147.17C409.74,-136.79 433.96,-122.42 453.52,-110.82" style=""/>
<polygon fill="black" stroke="black" points="455.14,-113.93 461.96,-105.81 451.57,-107.9 455.14,-113.93" style=""/>
</g>
<!-- IERC20 -->
<g id="node6" class="node" pointer-events="visible" data-name="IERC20">

<ellipse fill="none" stroke="black" cx="241.93" cy="-18" rx="42.88" ry="18" style=""/>
<text text-anchor="middle" x="241.93" y="-13.8" font-family="Times,serif" font-size="14.00" style="">IERC20</text>
</g>
<!-- ERC20&#45;&gt;IERC20 -->
<g id="edge4" class="edge" data-name="ERC20-&gt;IERC20">

<path fill="none" stroke="black" d="M339.09,-149.79C310.82,-138.58 271.2,-121.17 260.93,-108 247.55,-90.85 243.07,-66.42 241.78,-47.48" style=""/>
<polygon fill="black" stroke="black" points="245.29,-47.61 241.4,-37.76 238.29,-47.89 245.29,-47.61" style=""/>
</g>
<!-- IERC20Metadata -->
<g id="node7" class="node" pointer-events="visible" data-name="IERC20Metadata">

<ellipse fill="none" stroke="black" cx="348.93" cy="-90" rx="78.73" ry="18" style=""/>
<text text-anchor="middle" x="348.93" y="-85.8" font-family="Times,serif" font-size="14.00" style="">IERC20Metadata</text>
</g>
<!-- ERC20&#45;&gt;IERC20Metadata -->
<g id="edge5" class="edge" data-name="ERC20-&gt;IERC20Metadata">

<path fill="none" stroke="black" d="M363.98,-143.7C361.85,-136.24 359.31,-127.32 356.92,-118.97" style=""/>
<polygon fill="black" stroke="black" points="360.34,-118.21 354.23,-109.56 353.61,-120.14 360.34,-118.21" style=""/>
</g>
<!-- IERC20Metadata&#45;&gt;IERC20 -->
<g id="edge6" class="edge" data-name="IERC20Metadata-&gt;IERC20">

<path fill="none" stroke="black" d="M323.84,-72.59C308.9,-62.82 289.8,-50.32 273.81,-39.86" style=""/>
<polygon fill="black" stroke="black" points="275.86,-37.02 265.58,-34.47 272.03,-42.88 275.86,-37.02" style=""/>
</g>
<!-- SafeTransferLib -->
<g id="node8" class="node" pointer-events="visible" data-name="SafeTransferLib">

<ellipse fill="none" stroke="black" cx="499.93" cy="-378" rx="74.12" ry="18" style=""/>
<text text-anchor="middle" x="499.93" y="-373.8" font-family="Times,serif" font-size="14.00" style="">SafeTransferLib</text>
</g>
<!-- TestToken -->
<g id="node9" class="node" pointer-events="visible" data-name="TestToken">

<ellipse fill="none" stroke="black" cx="354.93" cy="-378" rx="52.17" ry="18" style=""/>
<text text-anchor="middle" x="354.93" y="-373.8" font-family="Times,serif" font-size="14.00" style="">TestToken</text>
</g>
<!-- BurnMintERC677 -->
<g id="node10" class="node" pointer-events="visible" data-name="BurnMintERC677">

<ellipse fill="none" stroke="black" cx="354.93" cy="-306" rx="82.3" ry="18" style=""/>
<text text-anchor="middle" x="354.93" y="-301.8" font-family="Times,serif" font-size="14.00" style="">BurnMintERC677</text>
</g>
<!-- TestToken&#45;&gt;BurnMintERC677 -->
<g id="edge7" class="edge" data-name="TestToken-&gt;BurnMintERC677">

<path fill="none" stroke="black" d="M354.93,-359.7C354.93,-352.41 354.93,-343.73 354.93,-335.54" style=""/>
<polygon fill="black" stroke="black" points="358.43,-335.62 354.93,-325.62 351.43,-335.62 358.43,-335.62" style=""/>
</g>
<!-- IBurnMintERC20 -->
<g id="node11" class="node" pointer-events="visible" data-name="IBurnMintERC20">

<ellipse fill="none" stroke="black" cx="117.93" cy="-162" rx="80.57" ry="18" style=""/>
<text text-anchor="middle" x="117.93" y="-157.8" font-family="Times,serif" font-size="14.00" style="">IBurnMintERC20</text>
</g>
<!-- BurnMintERC677&#45;&gt;IBurnMintERC20 -->
<g id="edge8" class="edge" data-name="BurnMintERC677-&gt;IBurnMintERC20">

<path fill="none" stroke="black" d="M293.58,-293.68C261.35,-285.68 222.35,-272.62 191.93,-252 167.88,-235.7 147.39,-209.42 134.11,-189.64" style=""/>
<polygon fill="black" stroke="black" points="137.22,-188 128.84,-181.52 131.35,-191.81 137.22,-188" style=""/>
</g>
<!-- ERC677 -->
<g id="node12" class="node" pointer-events="visible" data-name="ERC677">

<ellipse fill="none" stroke="black" cx="244.93" cy="-234" rx="44.11" ry="18" style=""/>
<text text-anchor="middle" x="244.93" y="-229.8" font-family="Times,serif" font-size="14.00" style="">ERC677</text>
</g>
<!-- BurnMintERC677&#45;&gt;ERC677 -->
<g id="edge9" class="edge" data-name="BurnMintERC677-&gt;ERC677">

<path fill="none" stroke="black" d="M329.14,-288.59C313.64,-278.72 293.78,-266.09 277.24,-255.56" style=""/>
<polygon fill="black" stroke="black" points="279.53,-252.87 269.22,-250.46 275.77,-258.78 279.53,-252.87" style=""/>
</g>
<!-- IERC165 -->
<g id="node13" class="node" pointer-events="visible" data-name="IERC165">

<ellipse fill="none" stroke="black" cx="354.93" cy="-234" rx="47.54" ry="18" style=""/>
<text text-anchor="middle" x="354.93" y="-229.8" font-family="Times,serif" font-size="14.00" style="">IERC165</text>
</g>
<!-- BurnMintERC677&#45;&gt;IERC165 -->
<g id="edge10" class="edge" data-name="BurnMintERC677-&gt;IERC165">

<path fill="none" stroke="black" d="M354.93,-287.7C354.93,-280.41 354.93,-271.73 354.93,-263.54" style=""/>
<polygon fill="black" stroke="black" points="358.43,-263.62 354.93,-253.62 351.43,-263.62 358.43,-263.62" style=""/>
</g>
<!-- ERC20Burnable -->
<g id="node14" class="node" pointer-events="visible" data-name="ERC20Burnable">

<ellipse fill="none" stroke="black" cx="494.93" cy="-234" rx="74.74" ry="18" style=""/>
<text text-anchor="middle" x="494.93" y="-229.8" font-family="Times,serif" font-size="14.00" style="">ERC20Burnable</text>
</g>
<!-- BurnMintERC677&#45;&gt;ERC20Burnable -->
<g id="edge11" class="edge" data-name="BurnMintERC677-&gt;ERC20Burnable">

<path fill="none" stroke="black" d="M386.7,-289.12C406.52,-279.2 432.26,-266.34 453.66,-255.64" style=""/>
<polygon fill="black" stroke="black" points="455.03,-258.86 462.41,-251.26 451.9,-252.6 455.03,-258.86" style=""/>
</g>
<!-- OwnerIsCreator -->
<g id="node15" class="node" pointer-events="visible" data-name="OwnerIsCreator">

<ellipse fill="none" stroke="black" cx="673.93" cy="-234" rx="73.49" ry="18" style=""/>
<text text-anchor="middle" x="673.93" y="-229.8" font-family="Times,serif" font-size="14.00" style="">OwnerIsCreator</text>
</g>
<!-- BurnMintERC677&#45;&gt;OwnerIsCreator -->
<g id="edge12" class="edge" data-name="BurnMintERC677-&gt;OwnerIsCreator">

<path fill="none" stroke="black" d="M411.59,-292.57C466.98,-280.41 551.22,-261.93 609.21,-249.2" style=""/>
<polygon fill="black" stroke="black" points="609.95,-252.62 618.97,-247.06 608.45,-245.79 609.95,-252.62" style=""/>
</g>
<!-- IBurnMintERC20&#45;&gt;IERC20 -->
<g id="edge13" class="edge" data-name="IBurnMintERC20-&gt;IERC20">

<path fill="none" stroke="black" d="M132.88,-143.87C154.62,-118.98 195.08,-72.65 220.13,-43.96" style=""/>
<polygon fill="black" stroke="black" points="222.75,-46.29 226.69,-36.45 217.47,-41.68 222.75,-46.29" style=""/>
</g>
<!-- ERC677&#45;&gt;ERC20 -->
<g id="edge15" class="edge" data-name="ERC677-&gt;ERC20">

<path fill="none" stroke="black" d="M270.02,-218.83C288.67,-208.31 314.32,-193.83 334.82,-182.25" style=""/>
<polygon fill="black" stroke="black" points="336.41,-185.38 343.4,-177.41 332.97,-179.28 336.41,-185.38" style=""/>
</g>
<!-- IERC677 -->
<g id="node16" class="node" pointer-events="visible" data-name="IERC677">

<ellipse fill="none" stroke="black" cx="263.93" cy="-162" rx="47.54" ry="18" style=""/>
<text text-anchor="middle" x="263.93" y="-157.8" font-family="Times,serif" font-size="14.00" style="">IERC677</text>
</g>
<!-- ERC677&#45;&gt;IERC677 -->
<g id="edge14" class="edge" data-name="ERC677-&gt;IERC677">

<path fill="none" stroke="black" d="M249.62,-215.7C251.65,-208.24 254.07,-199.32 256.34,-190.97" style=""/>
<polygon fill="black" stroke="black" points="259.65,-192.13 258.89,-181.57 252.89,-190.3 259.65,-192.13" style=""/>
</g>
<!-- ERC20Burnable&#45;&gt;ERC20 -->
<g id="edge20" class="edge" data-name="ERC20Burnable-&gt;ERC20">

<path fill="none" stroke="black" d="M466.02,-216.94C447.21,-206.49 422.6,-192.82 402.86,-181.85" style=""/>
<polygon fill="black" stroke="black" points="404.81,-178.93 394.37,-177.13 401.41,-185.05 404.81,-178.93" style=""/>
</g>
<!-- ERC20Burnable&#45;&gt;Context -->
<g id="edge19" class="edge" data-name="ERC20Burnable-&gt;Context">

<path fill="none" stroke="black" d="M493.95,-215.59C492.6,-191.61 490.15,-148.14 488.53,-119.42" style=""/>
<polygon fill="black" stroke="black" points="492.03,-119.41 487.98,-109.62 485.04,-119.8 492.03,-119.41" style=""/>
</g>
<!-- ConfirmedOwner -->
<g id="node19" class="node" pointer-events="visible" data-name="ConfirmedOwner">

<ellipse fill="none" stroke="black" cx="675.93" cy="-162" rx="79.31" ry="18" style=""/>
<text text-anchor="middle" x="675.93" y="-157.8" font-family="Times,serif" font-size="14.00" style="">ConfirmedOwner</text>
</g>
<!-- OwnerIsCreator&#45;&gt;ConfirmedOwner -->
<g id="edge16" class="edge" data-name="OwnerIsCreator-&gt;ConfirmedOwner">

<path fill="none" stroke="black" d="M674.42,-215.7C674.63,-208.41 674.88,-199.73 675.11,-191.54" style=""/>
<polygon fill="black" stroke="black" points="678.61,-191.71 675.4,-181.62 671.61,-191.51 678.61,-191.71" style=""/>
</g>
<!-- IERC677Receiver -->
<g id="node17" class="node" pointer-events="visible" data-name="IERC677Receiver">

<ellipse fill="none" stroke="black" cx="673.93" cy="-378" rx="81.66" ry="18" style=""/>
<text text-anchor="middle" x="673.93" y="-373.8" font-family="Times,serif" font-size="14.00" style="">IERC677Receiver</text>
</g>
<!-- Address -->
<g id="node18" class="node" pointer-events="visible" data-name="Address">

<ellipse fill="none" stroke="black" cx="816.93" cy="-378" rx="42.87" ry="18" style=""/>
<text text-anchor="middle" x="816.93" y="-373.8" font-family="Times,serif" font-size="14.00" style="">Address</text>
</g>
<!-- ConfirmedOwnerWithProposal -->
<g id="node20" class="node" pointer-events="visible" data-name="ConfirmedOwnerWithProposal">

<ellipse fill="none" stroke="black" cx="678.93" cy="-90" rx="132.02" ry="18" style=""/>
<text text-anchor="middle" x="678.93" y="-85.8" font-family="Times,serif" font-size="14.00" style="">ConfirmedOwnerWithProposal</text>
</g>
<!-- ConfirmedOwner&#45;&gt;ConfirmedOwnerWithProposal -->
<g id="edge17" class="edge" data-name="ConfirmedOwner-&gt;ConfirmedOwnerWithProposal">

<path fill="none" stroke="black" d="M676.67,-143.7C676.98,-136.41 677.35,-127.73 677.7,-119.54" style=""/>
<polygon fill="black" stroke="black" points="681.2,-119.76 678.13,-109.62 674.2,-119.46 681.2,-119.76" style=""/>
</g>
<!-- IOwnable -->
<g id="node21" class="node" pointer-events="visible" data-name="IOwnable">

<ellipse fill="none" stroke="black" cx="678.93" cy="-18" rx="49.23" ry="18" style=""/>
<text text-anchor="middle" x="678.93" y="-13.8" font-family="Times,serif" font-size="14.00" style="">IOwnable</text>
</g>
<!-- ConfirmedOwnerWithProposal&#45;&gt;IOwnable -->
<g id="edge18" class="edge" data-name="ConfirmedOwnerWithProposal-&gt;IOwnable">

<path fill="none" stroke="black" d="M678.93,-71.7C678.93,-64.41 678.93,-55.73 678.93,-47.54" style=""/>
<polygon fill="black" stroke="black" points="682.43,-47.62 678.93,-37.62 675.43,-47.62 682.43,-47.62" style=""/>
</g>
<!-- EnumerableSet -->
<g id="node22" class="node" pointer-events="visible" data-name="EnumerableSet">

<ellipse fill="none" stroke="black" cx="947.93" cy="-378" rx="70.06" ry="18" style=""/>
<text text-anchor="middle" x="947.93" y="-373.8" font-family="Times,serif" font-size="14.00" style="">EnumerableSet</text>
</g>
</g>
</svg>