<?xml version="1.0" standalone="no"?>
<svg xmlns="http://www.w3.org/2000/svg" xmlns:xlink="http://www.w3.org/1999/xlink" width="598pt" height="188pt" viewBox="0.00 0.00 598.24 188.00">
<g id="graph0" class="graph" transform="translate(4,184) scale(1)" data-name="G">

<polygon fill="white" stroke="none" points="-4,4 -4,-184 594.24,-184 594.24,4 -4,4" style=""/>
<!-- TokenVesting -->
<g id="node1" class="node" pointer-events="visible" data-name="TokenVesting">

<ellipse fill="none" stroke="black" cx="106.93" cy="-162" rx="66" ry="18" style=""/>
<text text-anchor="middle" x="106.93" y="-157.8" font-family="Times,serif" font-size="14.00" style="">TokenVesting</text>
</g>
<!-- Owned -->
<g id="node2" class="node" pointer-events="visible" data-name="Owned">

<ellipse fill="none" stroke="black" cx="38.93" cy="-90" rx="38.86" ry="18" style=""/>
<text text-anchor="middle" x="38.93" y="-85.8" font-family="Times,serif" font-size="14.00" style="">Owned</text>
</g>
<!-- TokenVesting&#45;&gt;Owned -->
<g id="edge1" class="edge" data-name="TokenVesting-&gt;Owned">

<path fill="none" stroke="black" d="M90.81,-144.41C82.31,-135.66 71.71,-124.75 62.32,-115.08" style=""/>
<polygon fill="black" stroke="black" points="64.99,-112.81 55.51,-108.07 59.97,-117.69 64.99,-112.81" style=""/>
</g>
<!-- ReentrancyGuard -->
<g id="node3" class="node" pointer-events="visible" data-name="ReentrancyGuard">

<ellipse fill="none" stroke="black" cx="174.93" cy="-90" rx="79.28" ry="18" style=""/>
<text text-anchor="middle" x="174.93" y="-85.8" font-family="Times,serif" font-size="14.00" style="">ReentrancyGuard</text>
</g>
<!-- TokenVesting&#45;&gt;ReentrancyGuard -->
<g id="edge2" class="edge" data-name="TokenVesting-&gt;ReentrancyGuard">

<path fill="none" stroke="black" d="M123.04,-144.41C131.22,-135.99 141.33,-125.58 150.45,-116.2" style=""/>
<polygon fill="black" stroke="black" points="152.94,-118.65 157.4,-109.04 147.92,-113.78 152.94,-118.65" style=""/>
</g>
<!-- ERC20 -->
<g id="node4" class="node" pointer-events="visible" data-name="ERC20">

<ellipse fill="none" stroke="black" cx="383.93" cy="-162" rx="39.45" ry="18" style=""/>
<text text-anchor="middle" x="383.93" y="-157.8" font-family="Times,serif" font-size="14.00" style="">ERC20</text>
</g>
<!-- Context -->
<g id="node5" class="node" pointer-events="visible" data-name="Context">

<ellipse fill="none" stroke="black" cx="313.93" cy="-90" rx="41.73" ry="18" style=""/>
<text text-anchor="middle" x="313.93" y="-85.8" font-family="Times,serif" font-size="14.00" style="">Context</text>
</g>
<!-- ERC20&#45;&gt;Context -->
<g id="edge3" class="edge" data-name="ERC20-&gt;Context">

<path fill="none" stroke="black" d="M368.04,-145.12C359.09,-136.17 347.74,-124.81 337.74,-114.81" style=""/>
<polygon fill="black" stroke="black" points="340.36,-112.49 330.82,-107.89 335.42,-117.44 340.36,-112.49" style=""/>
</g>
<!-- IERC20 -->
<g id="node6" class="node" pointer-events="visible" data-name="IERC20">

<ellipse fill="none" stroke="black" cx="436.93" cy="-18" rx="42.88" ry="18" style=""/>
<text text-anchor="middle" x="436.93" y="-13.8" font-family="Times,serif" font-size="14.00" style="">IERC20</text>
</g>
<!-- ERC20&#45;&gt;IERC20 -->
<g id="edge4" class="edge" data-name="ERC20-&gt;IERC20">

<path fill="none" stroke="black" d="M385.75,-143.73C388.1,-125.39 393.13,-95.82 402.93,-72 406.81,-62.55 412.39,-52.94 417.91,-44.55" style=""/>
<polygon fill="black" stroke="black" points="420.61,-46.8 423.4,-36.57 414.84,-42.83 420.61,-46.8" style=""/>
</g>
<!-- IERC20Metadata -->
<g id="node7" class="node" pointer-events="visible" data-name="IERC20Metadata">

<ellipse fill="none" stroke="black" cx="490.93" cy="-90" rx="78.73" ry="18" style=""/>
<text text-anchor="middle" x="490.93" y="-85.8" font-family="Times,serif" font-size="14.00" style="">IERC20Metadata</text>
</g>
<!-- ERC20&#45;&gt;IERC20Metadata -->
<g id="edge5" class="edge" data-name="ERC20-&gt;IERC20Metadata">

<path fill="none" stroke="black" d="M405.84,-146.67C420.35,-137.17 439.7,-124.51 456.28,-113.67" style=""/>
<polygon fill="black" stroke="black" points="457.95,-116.76 464.4,-108.36 454.11,-110.9 457.95,-116.76" style=""/>
</g>
<!-- IERC20Metadata&#45;&gt;IERC20 -->
<g id="edge6" class="edge" data-name="IERC20Metadata-&gt;IERC20">

<path fill="none" stroke="black" d="M477.86,-72.05C471.39,-63.68 463.47,-53.4 456.32,-44.13" style=""/>
<polygon fill="black" stroke="black" points="459.31,-42.29 450.43,-36.51 453.77,-46.56 459.31,-42.29" style=""/>
</g>
<!-- SafeTransferLib -->
<g id="node8" class="node" pointer-events="visible" data-name="SafeTransferLib">

<ellipse fill="none" stroke="black" cx="515.93" cy="-162" rx="74.12" ry="18" style=""/>
<text text-anchor="middle" x="515.93" y="-157.8" font-family="Times,serif" font-size="14.00" style="">SafeTransferLib</text>
</g>
</g>
</svg>